<svg width="55" height="33" viewBox="0 0 55 33" fill="none" xmlns="http://www.w3.org/2000/svg">
<path d="M45.6385 18.8558C44.7494 17.7328 45.0038 17.2333 45.6385 16.2295C45.65 16.218 52.9902 6.07513 53.7465 2.63533L53.751 2.63304C54.1269 1.3795 53.751 0.458252 51.9338 0.458252H45.9204C44.3896 0.458252 43.6838 1.24888 43.3056 2.13346C43.3056 2.13346 40.244 9.46221 35.9127 14.2128C34.5148 15.5855 33.8685 16.0255 33.1054 16.0255C32.7296 16.0255 32.1452 15.5855 32.1452 14.332V2.63304C32.1452 1.12971 31.7167 0.458252 30.4494 0.458252H20.994C20.0338 0.458252 19.4631 1.1595 19.4631 1.81263C19.4631 3.23804 21.6288 3.56575 21.8533 7.57617V16.2776C21.8533 18.1843 21.5073 18.5349 20.7396 18.5349C18.6954 18.5349 13.734 11.1764 10.7938 2.7545C10.2002 1.12054 9.62042 0.460543 8.07813 0.460543H2.0625C0.346042 0.460543 0 1.25117 0 2.13575C0 3.69867 2.04417 11.4697 9.50583 21.7364C14.4788 28.7443 21.4821 32.5416 27.8529 32.5416C31.6823 32.5416 32.1498 31.6983 32.1498 30.2476C32.1498 23.5514 31.8038 22.9189 33.7219 22.9189C34.611 22.9189 36.1419 23.3589 39.7169 26.7391C43.8029 30.7472 44.4744 32.5416 46.7615 32.5416H52.7748C54.489 32.5416 55.3575 31.6983 54.8579 30.0345C53.7144 26.5351 45.9869 19.337 45.6385 18.8558Z" fill="#C90E0E"/>
</svg>
