<svg width="24" height="24" viewBox="0 0 24 24" fill="none" xmlns="http://www.w3.org/2000/svg">
<path d="M21.5805 10.2005L17.516 7.85315L11.9473 12.014L17.5159 16.1748L21.5943 13.8193C22.2302 13.433 22.6097 12.7579 22.6097 12.0141C22.6097 11.2702 22.2302 10.5952 21.5805 10.2005Z" fill="#FF9100"/>
<path d="M13.3558 12.0141C13.3497 12.0219 8.43217 18.3445 8.42818 18.3496L2.02223 23.3946C1.62797 23.0003 1.38867 22.4654 1.38867 21.874V2.11918C1.38867 1.52791 1.62797 0.99286 2.02223 0.598694L8.42818 5.6785C8.43217 5.68362 13.3497 12.0062 13.3558 12.0141Z" fill="#25D9F8"/>
<path d="M13.3552 12.0141L11.9473 13.8302V10.1978L13.3552 12.0141Z" fill="#00C0F1"/>
<path d="M17.5235 7.84664L13.3561 12.0141L2.02246 0.598759C2.1632 0.472001 2.30404 0.373448 2.45891 0.274895C3.13466 -0.105192 3.93721 -0.09116 4.59897 0.317179L11.9482 4.63667L17.5235 7.84664Z" fill="#7FE881"/>
<path d="M17.5226 7.84663L13.3552 12.0141L11.9473 10.6062V4.63666L17.5226 7.84663Z" fill="#5BC980"/>
<path d="M17.5235 16.1814L11.9482 19.3915L4.58489 23.6903C4.24699 23.8874 3.88094 24 3.50076 24C3.14878 24 2.79681 23.9014 2.45891 23.7184C2.30404 23.6199 2.1632 23.5214 2.02246 23.3946L13.3561 12.0141L17.5235 16.1814Z" fill="#FF637B"/>
<path d="M17.5226 16.1814L11.9473 19.3915V13.422L13.3552 12.0141L17.5226 16.1814Z" fill="#E63950"/>
</svg>
