<svg width="176" height="64" viewBox="0 0 176 64" fill="none" xmlns="http://www.w3.org/2000/svg">
<path d="M24.3268 6.36839C24.076 6.36839 23.0729 6.12345 22.5713 5.1437C22.0697 4.16395 22.3205 2.93926 22.8221 2.20444C23.3236 0.979752 24.0761 0 24.5776 0C24.8284 0.244938 24.0761 1.71457 24.5776 3.42913C25.0792 4.89876 26.0824 5.87852 25.8316 6.36839C25.33 6.61333 24.5776 6.36839 24.3268 6.36839Z" fill="#C90E0E"/>
<path d="M28.0898 36.7411C29.6134 36.7411 30.8486 35.5348 30.8486 34.0467C30.8486 32.5587 29.6134 31.3524 28.0898 31.3524C26.5662 31.3524 25.3311 32.5587 25.3311 34.0467C25.3311 35.5348 26.5662 36.7411 28.0898 36.7411Z" fill="#FCFCFC"/>
<path d="M41.1306 31.8422C39.1243 26.9434 37.8703 26.6985 37.6195 26.6985C36.3655 26.6985 36.1147 29.6377 34.3591 29.8827C33.6067 29.8827 32.8544 29.6377 31.0988 27.6782C29.3432 25.4738 28.34 23.2693 27.3368 20.575C25.3305 15.1864 25.3305 13.7167 23.3241 12.0022C22.0701 10.7775 20.0637 9.79773 19.8129 10.0427C19.5621 10.2876 21.3177 11.7572 22.0701 14.6965C22.3209 15.4313 23.3241 18.6155 22.3209 22.0446C21.8193 23.5143 21.0669 26.2086 18.8097 26.9434C17.5558 27.4333 16.051 27.1883 14.797 26.4535C12.289 24.9839 12.5398 21.3098 12.5398 20.575C12.5398 18.3706 13.543 17.3908 13.2922 17.1459C12.7906 16.656 9.02868 19.8402 6.26991 23.5143C4.76513 25.4738 1.00318 30.6175 0.250793 38.4555C0.250793 38.9454 0 39.6802 0 40.415C2.00637 37.4757 5.26673 35.2713 10.0319 35.2713C26.0828 35.2713 26.0828 59.7651 10.0319 59.7651C8.77788 59.7651 7.5239 59.5202 6.26991 59.2752C6.77151 59.7651 7.2731 60.01 7.77469 60.4999C11.035 62.7044 14.0446 63.1942 17.0542 63.6841C19.0605 63.9291 23.8257 64.6639 29.594 62.4594C31.8512 61.7246 36.6163 59.7651 40.3782 54.6214C43.3878 50.4575 43.8894 46.2935 43.8894 44.5789C44.391 39.6802 43.137 36.496 41.1306 31.8422Z" fill="#C90E0E"/>
<path d="M61.42 41C61.2733 41 61.1487 40.956 61.046 40.868C60.958 40.7653 60.914 40.6407 60.914 40.494V26.106C60.914 25.9593 60.958 25.842 61.046 25.754C61.1487 25.6513 61.2733 25.6 61.42 25.6H62.586C62.7327 25.6 62.85 25.6513 62.938 25.754C63.0407 25.842 63.092 25.9593 63.092 26.106V39.086H70.396C70.5573 39.086 70.682 39.1373 70.77 39.24C70.8727 39.328 70.924 39.4527 70.924 39.614V40.494C70.924 40.6407 70.8727 40.7653 70.77 40.868C70.6673 40.956 70.5427 41 70.396 41H61.42ZM73.3545 27.426C73.2078 27.426 73.0832 27.382 72.9805 27.294C72.8925 27.1913 72.8485 27.0667 72.8485 26.92V25.732C72.8485 25.5853 72.8925 25.4607 72.9805 25.358C73.0832 25.2553 73.2078 25.204 73.3545 25.204H74.7405C74.8872 25.204 75.0118 25.2553 75.1145 25.358C75.2172 25.4607 75.2685 25.5853 75.2685 25.732V26.92C75.2685 27.0667 75.2172 27.1913 75.1145 27.294C75.0118 27.382 74.8872 27.426 74.7405 27.426H73.3545ZM73.5305 41C73.3838 41 73.2592 40.956 73.1565 40.868C73.0685 40.7653 73.0245 40.6407 73.0245 40.494V30.066C73.0245 29.9193 73.0685 29.802 73.1565 29.714C73.2592 29.6113 73.3838 29.56 73.5305 29.56H74.5865C74.7332 29.56 74.8505 29.6113 74.9385 29.714C75.0412 29.802 75.0925 29.9193 75.0925 30.066V40.494C75.0925 40.6407 75.0412 40.7653 74.9385 40.868C74.8505 40.956 74.7332 41 74.5865 41H73.5305ZM83.0386 45.84C81.8359 45.84 80.8679 45.6347 80.1346 45.224C79.4013 44.828 78.8806 44.3733 78.5726 43.86C78.2646 43.3467 78.0959 42.8847 78.0666 42.474C78.0519 42.3273 78.0959 42.2027 78.1986 42.1C78.3159 41.9973 78.4406 41.946 78.5726 41.946H79.6286C79.7606 41.946 79.8706 41.9753 79.9586 42.034C80.0466 42.1073 80.1199 42.232 80.1786 42.408C80.3546 42.8773 80.6406 43.2807 81.0366 43.618C81.4473 43.97 82.0779 44.146 82.9286 44.146C84.0139 44.146 84.8133 43.9113 85.3266 43.442C85.8399 42.9873 86.0966 42.1733 86.0966 41V39.504C85.7153 39.988 85.2313 40.3767 84.6446 40.67C84.0579 40.9487 83.3613 41.088 82.5546 41.088C80.9999 41.088 79.8339 40.5967 79.0566 39.614C78.2939 38.6167 77.8906 37.3553 77.8466 35.83L77.8246 35.214L77.8466 34.62C77.8906 33.1093 78.3013 31.8553 79.0786 30.858C79.8559 29.846 81.0146 29.34 82.5546 29.34C84.0946 29.34 85.2973 29.9047 86.1626 31.034V30.088C86.1626 29.9413 86.2066 29.8167 86.2946 29.714C86.3973 29.6113 86.5219 29.56 86.6686 29.56H87.6806C87.8273 29.56 87.9519 29.6113 88.0546 29.714C88.1573 29.8167 88.2086 29.9413 88.2086 30.088V40.758C88.2086 44.146 86.4853 45.84 83.0386 45.84ZM82.9946 39.328C83.9919 39.328 84.7473 38.998 85.2606 38.338C85.7739 37.678 86.0526 36.8933 86.0966 35.984C86.1113 35.852 86.1186 35.5953 86.1186 35.214C86.1186 34.8473 86.1113 34.598 86.0966 34.466C86.0526 33.5567 85.7739 32.772 85.2606 32.112C84.7619 31.452 84.0066 31.122 82.9946 31.122C81.9533 31.122 81.1979 31.4447 80.7286 32.09C80.2593 32.7353 80.0026 33.586 79.9586 34.642L79.9366 35.214L79.9586 35.808C80.0026 36.8493 80.2593 37.7 80.7286 38.36C81.1979 39.0053 81.9533 39.328 82.9946 39.328ZM92.0076 41C91.8609 41 91.7362 40.956 91.6336 40.868C91.5456 40.7653 91.5016 40.6407 91.5016 40.494V25.886C91.5016 25.7393 91.5456 25.622 91.6336 25.534C91.7362 25.4313 91.8609 25.38 92.0076 25.38H93.1076C93.2542 25.38 93.3716 25.4313 93.4596 25.534C93.5622 25.622 93.6136 25.7393 93.6136 25.886V31.012C94.0389 30.4693 94.5376 30.0587 95.1096 29.78C95.6816 29.4867 96.3929 29.34 97.2436 29.34C98.6516 29.34 99.7442 29.7947 100.522 30.704C101.314 31.5987 101.71 32.794 101.71 34.29V40.494C101.71 40.6407 101.658 40.7653 101.556 40.868C101.468 40.956 101.35 41 101.204 41H100.104C99.9569 41 99.8322 40.956 99.7296 40.868C99.6416 40.7653 99.5976 40.6407 99.5976 40.494V34.4C99.5976 33.3587 99.3409 32.552 98.8276 31.98C98.3289 31.408 97.6029 31.122 96.6496 31.122C95.7256 31.122 94.9849 31.4153 94.4276 32.002C93.8849 32.574 93.6136 33.3733 93.6136 34.4V40.494C93.6136 40.6407 93.5622 40.7653 93.4596 40.868C93.3716 40.956 93.2542 41 93.1076 41H92.0076ZM109.201 41C106.884 41 105.725 39.7093 105.725 37.128V31.32H104.009C103.863 31.32 103.738 31.276 103.635 31.188C103.547 31.0853 103.503 30.9607 103.503 30.814V30.066C103.503 29.9193 103.547 29.802 103.635 29.714C103.738 29.6113 103.863 29.56 104.009 29.56H105.725V25.886C105.725 25.7393 105.769 25.622 105.857 25.534C105.96 25.4313 106.085 25.38 106.231 25.38H107.265C107.412 25.38 107.529 25.4313 107.617 25.534C107.72 25.622 107.771 25.7393 107.771 25.886V29.56H110.499C110.646 29.56 110.763 29.6113 110.851 29.714C110.954 29.802 111.005 29.9193 111.005 30.066V30.814C111.005 30.9607 110.954 31.0853 110.851 31.188C110.763 31.276 110.646 31.32 110.499 31.32H107.771V36.974C107.771 37.7073 107.896 38.2647 108.145 38.646C108.395 39.0127 108.805 39.196 109.377 39.196H110.719C110.866 39.196 110.983 39.2473 111.071 39.35C111.174 39.438 111.225 39.5553 111.225 39.702V40.494C111.225 40.6407 111.174 40.7653 111.071 40.868C110.983 40.956 110.866 41 110.719 41H109.201Z" fill="#222223"/>
<path d="M118.565 41.22C117.348 41.22 116.292 41.0293 115.397 40.648C114.517 40.2667 113.843 39.768 113.373 39.152C112.904 38.5213 112.655 37.8467 112.625 37.128C112.625 37.0107 112.669 36.908 112.757 36.82C112.86 36.7173 112.977 36.666 113.109 36.666H114.231C114.51 36.666 114.701 36.8127 114.803 37.106C114.935 37.722 115.309 38.25 115.925 38.69C116.556 39.13 117.436 39.35 118.565 39.35C119.783 39.35 120.699 39.1373 121.315 38.712C121.931 38.272 122.239 37.6633 122.239 36.886C122.239 36.3873 122.085 35.984 121.777 35.676C121.484 35.368 121.044 35.0967 120.457 34.862C119.871 34.6273 118.991 34.334 117.817 33.982C116.673 33.6593 115.764 33.3147 115.089 32.948C114.415 32.5813 113.909 32.1267 113.571 31.584C113.234 31.0413 113.065 30.3593 113.065 29.538C113.065 28.746 113.278 28.0347 113.703 27.404C114.143 26.7733 114.767 26.282 115.573 25.93C116.38 25.5633 117.341 25.38 118.455 25.38C119.599 25.38 120.582 25.5853 121.403 25.996C122.225 26.392 122.848 26.898 123.273 27.514C123.699 28.13 123.926 28.746 123.955 29.362C123.955 29.4793 123.911 29.582 123.823 29.67C123.75 29.758 123.64 29.802 123.493 29.802H122.327C122.019 29.802 121.829 29.6627 121.755 29.384C121.667 28.768 121.323 28.262 120.721 27.866C120.12 27.4553 119.365 27.25 118.455 27.25C117.458 27.25 116.673 27.4407 116.101 27.822C115.529 28.2033 115.243 28.768 115.243 29.516C115.243 30.0147 115.375 30.4253 115.639 30.748C115.918 31.0707 116.336 31.3567 116.893 31.606C117.451 31.8407 118.265 32.112 119.335 32.42C120.582 32.7573 121.565 33.1093 122.283 33.476C123.002 33.828 123.537 34.2753 123.889 34.818C124.241 35.346 124.417 36.0207 124.417 36.842C124.417 38.206 123.889 39.2767 122.833 40.054C121.777 40.8313 120.355 41.22 118.565 41.22ZM130.205 41.22C129.486 41.22 128.819 41.0733 128.203 40.78C127.587 40.4867 127.095 40.0907 126.729 39.592C126.377 39.0787 126.201 38.514 126.201 37.898C126.201 36.93 126.597 36.138 127.389 35.522C128.195 34.8913 129.281 34.4807 130.645 34.29L133.923 33.828V33.19C133.923 31.694 133.065 30.946 131.349 30.946C130.703 30.946 130.175 31.0853 129.765 31.364C129.354 31.628 129.046 31.9433 128.841 32.31C128.797 32.442 128.738 32.5373 128.665 32.596C128.606 32.6547 128.518 32.684 128.401 32.684H127.455C127.323 32.684 127.205 32.64 127.103 32.552C127.015 32.4493 126.971 32.332 126.971 32.2C126.985 31.848 127.147 31.452 127.455 31.012C127.777 30.5573 128.269 30.1687 128.929 29.846C129.589 29.5087 130.403 29.34 131.371 29.34C133.013 29.34 134.194 29.7287 134.913 30.506C135.631 31.2687 135.991 32.222 135.991 33.366V40.494C135.991 40.6407 135.939 40.7653 135.837 40.868C135.749 40.956 135.631 41 135.485 41H134.473C134.326 41 134.201 40.956 134.099 40.868C134.011 40.7653 133.967 40.6407 133.967 40.494V39.548C133.644 40.0173 133.175 40.4133 132.559 40.736C131.943 41.0587 131.158 41.22 130.205 41.22ZM130.667 39.57C131.62 39.57 132.397 39.262 132.999 38.646C133.615 38.0153 133.923 37.1133 133.923 35.94V35.324L131.371 35.698C130.329 35.8447 129.545 36.094 129.017 36.446C128.489 36.7833 128.225 37.216 128.225 37.744C128.225 38.3307 128.467 38.7853 128.951 39.108C129.435 39.416 130.007 39.57 130.667 39.57ZM143.421 41.22C142.028 41.22 140.95 40.7727 140.187 39.878C139.425 38.9687 139.043 37.766 139.043 36.27V30.066C139.043 29.9193 139.087 29.802 139.175 29.714C139.278 29.6113 139.403 29.56 139.549 29.56H140.649C140.796 29.56 140.913 29.6113 141.001 29.714C141.104 29.802 141.155 29.9193 141.155 30.066V36.16C141.155 38.3453 142.109 39.438 144.015 39.438C144.939 39.438 145.673 39.152 146.215 38.58C146.758 37.9933 147.029 37.1867 147.029 36.16V30.066C147.029 29.9193 147.073 29.802 147.161 29.714C147.264 29.6113 147.389 29.56 147.535 29.56H148.635C148.782 29.56 148.899 29.6113 148.987 29.714C149.075 29.802 149.119 29.9193 149.119 30.066V40.494C149.119 40.6407 149.075 40.7653 148.987 40.868C148.899 40.956 148.782 41 148.635 41H147.601C147.455 41 147.33 40.956 147.227 40.868C147.139 40.7653 147.095 40.6407 147.095 40.494V39.526C146.685 40.0833 146.186 40.5087 145.599 40.802C145.013 41.0807 144.287 41.22 143.421 41.22ZM157.008 41.22C155.438 41.22 154.206 40.78 153.312 39.9C152.432 39.0053 151.962 37.7587 151.904 36.16L151.882 35.28L151.904 34.4C151.962 32.8013 152.432 31.562 153.312 30.682C154.206 29.7873 155.438 29.34 157.008 29.34C158.064 29.34 158.958 29.5307 159.692 29.912C160.425 30.2933 160.968 30.7627 161.32 31.32C161.686 31.8773 161.884 32.4347 161.914 32.992C161.928 33.1387 161.884 33.256 161.782 33.344C161.679 33.432 161.554 33.476 161.408 33.476H160.352C160.205 33.476 160.095 33.4467 160.022 33.388C159.948 33.3293 159.875 33.212 159.802 33.036C159.552 32.332 159.2 31.8333 158.746 31.54C158.291 31.232 157.719 31.078 157.03 31.078C156.12 31.078 155.394 31.364 154.852 31.936C154.324 32.4933 154.038 33.3513 153.994 34.51L153.972 35.302L153.994 36.05C154.038 37.2233 154.324 38.0887 154.852 38.646C155.38 39.2033 156.106 39.482 157.03 39.482C157.719 39.482 158.291 39.3353 158.746 39.042C159.2 38.734 159.552 38.228 159.802 37.524C159.875 37.348 159.948 37.2307 160.022 37.172C160.095 37.0987 160.205 37.062 160.352 37.062H161.408C161.554 37.062 161.679 37.1133 161.782 37.216C161.884 37.304 161.928 37.4213 161.914 37.568C161.884 38.1107 161.686 38.668 161.32 39.24C160.968 39.7973 160.425 40.2667 159.692 40.648C158.973 41.0293 158.078 41.22 157.008 41.22ZM169.102 41.22C167.592 41.22 166.382 40.758 165.472 39.834C164.578 38.8953 164.086 37.6193 163.998 36.006L163.976 35.258L163.998 34.532C164.101 32.948 164.6 31.6867 165.494 30.748C166.404 29.8093 167.599 29.34 169.08 29.34C170.708 29.34 171.97 29.8607 172.864 30.902C173.759 31.9287 174.206 33.322 174.206 35.082V35.456C174.206 35.6027 174.155 35.7273 174.052 35.83C173.964 35.918 173.847 35.962 173.7 35.962H166.088V36.16C166.132 37.1133 166.418 37.9273 166.946 38.602C167.489 39.262 168.2 39.592 169.08 39.592C169.755 39.592 170.305 39.46 170.73 39.196C171.17 38.9173 171.493 38.6313 171.698 38.338C171.83 38.162 171.926 38.0593 171.984 38.03C172.058 37.986 172.182 37.964 172.358 37.964H173.436C173.568 37.964 173.678 38.0007 173.766 38.074C173.854 38.1473 173.898 38.25 173.898 38.382C173.898 38.7047 173.693 39.0933 173.282 39.548C172.886 40.0027 172.322 40.3987 171.588 40.736C170.87 41.0587 170.041 41.22 169.102 41.22ZM172.116 34.444V34.378C172.116 33.366 171.838 32.5447 171.28 31.914C170.738 31.2687 170.004 30.946 169.08 30.946C168.156 30.946 167.423 31.2687 166.88 31.914C166.352 32.5447 166.088 33.366 166.088 34.378V34.444H172.116Z" fill="#C90E0E"/>
<path d="M63.008 59.12C62.008 59.12 61.232 58.832 60.68 58.256C60.128 57.68 59.836 56.908 59.804 55.94C59.796 55.7 59.792 55.32 59.792 54.8C59.792 54.28 59.796 53.9 59.804 53.66C59.836 52.692 60.128 51.92 60.68 51.344C61.232 50.768 62.008 50.48 63.008 50.48C63.688 50.48 64.26 50.608 64.724 50.864C65.188 51.12 65.532 51.424 65.756 51.776C65.988 52.12 66.112 52.428 66.128 52.7V52.724C66.128 52.788 66.104 52.84 66.056 52.88C66.008 52.92 65.948 52.94 65.876 52.94H65.612C65.54 52.94 65.488 52.924 65.456 52.892C65.424 52.86 65.392 52.796 65.36 52.7C65.224 52.276 64.96 51.92 64.568 51.632C64.184 51.344 63.664 51.2 63.008 51.2C62.264 51.2 61.676 51.404 61.244 51.812C60.82 52.22 60.592 52.856 60.56 53.72C60.552 53.96 60.548 54.32 60.548 54.8C60.548 55.28 60.552 55.64 60.56 55.88C60.592 56.744 60.82 57.38 61.244 57.788C61.676 58.196 62.264 58.4 63.008 58.4C63.752 58.4 64.352 58.188 64.808 57.764C65.264 57.34 65.492 56.712 65.492 55.88V55.268H63.404C63.324 55.268 63.26 55.244 63.212 55.196C63.164 55.14 63.14 55.072 63.14 54.992V54.824C63.14 54.744 63.164 54.68 63.212 54.632C63.26 54.576 63.324 54.548 63.404 54.548H65.972C66.06 54.548 66.128 54.572 66.176 54.62C66.224 54.668 66.248 54.736 66.248 54.824V55.88C66.248 56.52 66.12 57.084 65.864 57.572C65.608 58.06 65.236 58.44 64.748 58.712C64.26 58.984 63.68 59.12 63.008 59.12ZM69.6208 59.12C69.2368 59.12 68.8808 59.04 68.5527 58.88C68.2248 58.72 67.9608 58.504 67.7607 58.232C67.5688 57.96 67.4728 57.66 67.4728 57.332C67.4728 56.804 67.6848 56.372 68.1088 56.036C68.5408 55.7 69.1208 55.484 69.8488 55.388L71.7448 55.124V54.704C71.7448 54.264 71.6088 53.928 71.3368 53.696C71.0728 53.456 70.6648 53.336 70.1128 53.336C69.7048 53.336 69.3688 53.416 69.1048 53.576C68.8488 53.736 68.6848 53.928 68.6128 54.152C68.5808 54.248 68.5408 54.316 68.4928 54.356C68.4528 54.388 68.3968 54.404 68.3248 54.404H68.1568C68.0848 54.404 68.0208 54.38 67.9648 54.332C67.9168 54.276 67.8928 54.212 67.8928 54.14C67.8928 53.964 67.9728 53.76 68.1328 53.528C68.2928 53.288 68.5408 53.08 68.8768 52.904C69.2128 52.728 69.6248 52.64 70.1128 52.64C70.9688 52.64 71.5768 52.844 71.9368 53.252C72.2968 53.66 72.4768 54.156 72.4768 54.74V58.736C72.4768 58.816 72.4528 58.88 72.4048 58.928C72.3568 58.976 72.2928 59 72.2128 59H72.0088C71.9288 59 71.8648 58.976 71.8168 58.928C71.7688 58.88 71.7448 58.816 71.7448 58.736V58.172C71.5688 58.436 71.3088 58.66 70.9648 58.844C70.6288 59.028 70.1808 59.12 69.6208 59.12ZM69.7408 58.424C70.3248 58.424 70.8048 58.232 71.1808 57.848C71.5568 57.464 71.7448 56.912 71.7448 56.192V55.784L70.1968 56C69.5408 56.088 69.0448 56.24 68.7088 56.456C68.3728 56.672 68.2048 56.944 68.2048 57.272C68.2048 57.64 68.3568 57.924 68.6608 58.124C68.9728 58.324 69.3328 58.424 69.7408 58.424ZM74.6383 59C74.5583 59 74.4943 58.976 74.4463 58.928C74.3983 58.88 74.3743 58.816 74.3743 58.736V53.024C74.3743 52.944 74.3983 52.88 74.4463 52.832C74.4943 52.784 74.5583 52.76 74.6383 52.76H74.8423C74.9223 52.76 74.9863 52.784 75.0343 52.832C75.0823 52.88 75.1063 52.944 75.1063 53.024V53.444C75.3143 53.18 75.5543 52.98 75.8263 52.844C76.1063 52.708 76.4383 52.64 76.8223 52.64C77.7183 52.64 78.3583 53.016 78.7423 53.768C78.9343 53.424 79.2063 53.152 79.5583 52.952C79.9183 52.744 80.3263 52.64 80.7823 52.64C81.4463 52.64 81.9863 52.868 82.4023 53.324C82.8183 53.772 83.0263 54.412 83.0263 55.244V58.736C83.0263 58.816 83.0023 58.88 82.9543 58.928C82.9063 58.976 82.8423 59 82.7623 59H82.5583C82.4783 59 82.4143 58.976 82.3663 58.928C82.3183 58.88 82.2943 58.816 82.2943 58.736V55.364C82.2943 54.636 82.1423 54.116 81.8383 53.804C81.5423 53.492 81.1503 53.336 80.6623 53.336C80.2303 53.336 79.8543 53.496 79.5343 53.816C79.2223 54.128 79.0663 54.644 79.0663 55.364V58.736C79.0663 58.816 79.0423 58.88 78.9943 58.928C78.9463 58.976 78.8823 59 78.8023 59H78.5983C78.5183 59 78.4543 58.976 78.4063 58.928C78.3583 58.88 78.3343 58.816 78.3343 58.736V55.364C78.3343 54.644 78.1783 54.128 77.8663 53.816C77.5543 53.496 77.1663 53.336 76.7023 53.336C76.2703 53.336 75.8943 53.496 75.5743 53.816C75.2623 54.128 75.1063 54.64 75.1063 55.352V58.736C75.1063 58.816 75.0823 58.88 75.0343 58.928C74.9863 58.976 74.9223 59 74.8423 59H74.6383ZM87.2255 59.12C86.4655 59.12 85.8535 58.872 85.3895 58.376C84.9255 57.872 84.6615 57.2 84.5975 56.36L84.5855 55.88L84.5975 55.4C84.6615 54.568 84.9215 53.9 85.3775 53.396C85.8415 52.892 86.4575 52.64 87.2255 52.64C88.0575 52.64 88.7055 52.916 89.1695 53.468C89.6415 54.02 89.8775 54.776 89.8775 55.736V55.916C89.8775 55.996 89.8495 56.06 89.7935 56.108C89.7455 56.156 89.6815 56.18 89.6015 56.18H85.3295V56.3C85.3455 56.676 85.4295 57.028 85.5815 57.356C85.7415 57.676 85.9615 57.936 86.2415 58.136C86.5215 58.328 86.8495 58.424 87.2255 58.424C87.6655 58.424 88.0215 58.34 88.2935 58.172C88.5735 57.996 88.7735 57.82 88.8935 57.644C88.9655 57.548 89.0175 57.488 89.0495 57.464C89.0895 57.44 89.1575 57.428 89.2535 57.428H89.4455C89.5175 57.428 89.5775 57.448 89.6255 57.488C89.6735 57.528 89.6975 57.58 89.6975 57.644C89.6975 57.812 89.5895 58.016 89.3735 58.256C89.1655 58.488 88.8735 58.692 88.4975 58.868C88.1215 59.036 87.6975 59.12 87.2255 59.12ZM89.1455 55.508V55.46C89.1455 54.844 88.9695 54.336 88.6175 53.936C88.2735 53.536 87.8095 53.336 87.2255 53.336C86.6415 53.336 86.1775 53.536 85.8335 53.936C85.4975 54.336 85.3295 54.844 85.3295 55.46V55.508H89.1455ZM93.4403 59.12C92.9203 59.12 92.4803 59.032 92.1203 58.856C91.7683 58.68 91.5003 58.48 91.3163 58.256C91.1403 58.032 91.0523 57.852 91.0523 57.716C91.0523 57.644 91.0803 57.588 91.1363 57.548C91.1923 57.5 91.2523 57.476 91.3163 57.476H91.4963C91.5523 57.476 91.5963 57.488 91.6283 57.512C91.6683 57.528 91.7123 57.568 91.7603 57.632C91.9363 57.88 92.1483 58.076 92.3963 58.22C92.6523 58.356 93.0003 58.424 93.4403 58.424C93.9363 58.424 94.3363 58.332 94.6403 58.148C94.9443 57.956 95.0963 57.684 95.0963 57.332C95.0963 57.116 95.0323 56.94 94.9043 56.804C94.7843 56.668 94.5843 56.552 94.3043 56.456C94.0323 56.352 93.6243 56.236 93.0803 56.108C92.3683 55.948 91.8803 55.728 91.6163 55.448C91.3603 55.168 91.2323 54.812 91.2323 54.38C91.2323 54.084 91.3123 53.804 91.4723 53.54C91.6403 53.276 91.8843 53.06 92.2043 52.892C92.5323 52.724 92.9243 52.64 93.3803 52.64C93.8603 52.64 94.2643 52.724 94.5923 52.892C94.9283 53.052 95.1763 53.24 95.3363 53.456C95.5043 53.672 95.5883 53.848 95.5883 53.984C95.5883 54.056 95.5603 54.116 95.5043 54.164C95.4563 54.204 95.3963 54.224 95.3243 54.224H95.1443C95.0323 54.224 94.9443 54.172 94.8803 54.068C94.7203 53.828 94.5363 53.648 94.3283 53.528C94.1283 53.4 93.8123 53.336 93.3803 53.336C92.9163 53.336 92.5643 53.432 92.3243 53.624C92.0843 53.816 91.9643 54.068 91.9643 54.38C91.9643 54.572 92.0123 54.732 92.1083 54.86C92.2043 54.988 92.3843 55.108 92.6483 55.22C92.9123 55.324 93.2963 55.432 93.8003 55.544C94.5443 55.712 95.0683 55.936 95.3723 56.216C95.6763 56.496 95.8283 56.868 95.8283 57.332C95.8283 57.66 95.7363 57.96 95.5523 58.232C95.3683 58.504 95.0963 58.72 94.7363 58.88C94.3763 59.04 93.9443 59.12 93.4403 59.12Z" fill="#313131"/>
</svg>
