<svg width="44" height="64" viewBox="0 0 44 64" fill="none" xmlns="http://www.w3.org/2000/svg">
<path d="M41.1306 31.8422C39.1243 26.9434 37.8703 26.6985 37.6195 26.6985C36.3655 26.6985 36.1147 29.6377 34.3591 29.8827C33.6067 29.8827 32.8544 29.6377 31.0988 27.6782C29.3432 25.4738 28.34 23.2693 27.3368 20.575C25.3305 15.1864 25.3305 13.7167 23.3241 12.0022C22.0701 10.7775 20.0637 9.79773 19.8129 10.0427C19.5621 10.2876 21.3177 11.7572 22.0701 14.6965C22.3209 15.4313 23.3241 18.6155 22.3209 22.0446C21.8193 23.5143 21.0669 26.2086 18.8097 26.9434C17.5558 27.4333 16.051 27.1883 14.797 26.4535C12.289 24.9839 12.5398 21.3098 12.5398 20.575C12.5398 18.3706 13.543 17.3908 13.2922 17.1459C12.7906 16.656 9.02868 19.8402 6.26991 23.5143C4.76513 25.4738 1.00318 30.6175 0.250793 38.4555C0.250793 38.9454 0 39.6802 0 40.415C2.00637 37.4757 5.26673 35.2713 10.0319 35.2713C26.0828 35.2713 26.0828 59.7651 10.0319 59.7651C8.77788 59.7651 7.5239 59.5202 6.26991 59.2752C6.77151 59.7651 7.2731 60.01 7.77469 60.4999C11.035 62.7044 14.0446 63.1942 17.0542 63.6841C19.0605 63.9291 23.8257 64.6639 29.594 62.4594C31.8512 61.7246 36.6163 59.7651 40.3782 54.6214C43.3878 50.4575 43.8894 46.2935 43.8894 44.5789C44.391 39.6802 43.137 36.496 41.1306 31.8422Z" fill="#C90E0E"/>
<path d="M24.3268 6.36839C24.076 6.36839 23.0729 6.12345 22.5713 5.1437C22.0697 4.16395 22.3205 2.93926 22.8221 2.20444C23.3236 0.979752 24.0761 0 24.5776 0C24.8284 0.244938 24.0761 1.71457 24.5776 3.42913C25.0792 4.89876 26.0824 5.87852 25.8316 6.36839C25.33 6.61333 24.5776 6.36839 24.3268 6.36839Z" fill="#C90E0E"/>
<path d="M28.0898 36.7411C29.6134 36.7411 30.8486 35.5348 30.8486 34.0467C30.8486 32.5587 29.6134 31.3524 28.0898 31.3524C26.5662 31.3524 25.3311 32.5587 25.3311 34.0467C25.3311 35.5348 26.5662 36.7411 28.0898 36.7411Z" fill="#FCFCFC"/>
</svg>
